<svg width="8" height="10" viewBox="0 0 8 10" fill="none" xmlns="http://www.w3.org/2000/svg">
<g clip-path="url(#clip0_11:255)">
<path fill-rule="evenodd" clip-rule="evenodd" d="M4.00005 0.46666C4.12692 0.46666 4.2428 0.554529 4.29895 0.693326L5.25147 3.04756L7.38159 3.4274C7.50711 3.44978 7.61134 3.55715 7.65047 3.70436C7.68959 3.85158 7.65683 4.01313 7.56596 4.12111L6.02489 5.95234L6.38859 8.53938C6.41004 8.69196 6.35862 8.84616 6.25596 8.93714C6.1533 9.02813 6.0172 9.04011 5.9049 8.96806L4.00005 7.74593L2.0952 8.96806C1.9829 9.04011 1.8468 9.02813 1.74414 8.93714C1.64148 8.84616 1.59006 8.69196 1.61151 8.53938L1.97521 5.95234L0.434139 4.12111C0.343267 4.01313 0.310509 3.85158 0.349635 3.70436C0.388761 3.55715 0.492988 3.44978 0.618508 3.4274L2.74863 3.04756L3.70115 0.693326C3.7573 0.554529 3.87318 0.46666 4.00005 0.46666ZM4.00005 1.79209L3.26895 3.59906C3.22044 3.71897 3.12671 3.80211 3.01826 3.82145L1.38285 4.11308L2.56596 5.51894C2.64459 5.61237 2.68047 5.74703 2.66192 5.879L2.38278 7.86461L3.8449 6.92653C3.94203 6.86421 4.05807 6.86421 4.1552 6.92653L5.61732 7.86461L5.33818 5.879C5.31963 5.74703 5.35552 5.61237 5.43414 5.51894L6.61725 4.11308L4.98184 3.82145C4.87339 3.80211 4.77966 3.71897 4.73115 3.59906L4.00005 1.79209Z" fill="#F2994A"/>
</g>
<path d="M2.33333 6.16L1 3.72L3 3.31333L4 1.28L5 3.31333L7 4.12667L5.66667 5.75333L6 8.6L4 7.38L2 8.6L2.33333 6.16Z" fill="#F2994A"/>
<defs>
<clipPath id="clip0_11:255">
<rect width="8" height="9.76" fill="white" transform="translate(0 0.0599976)"/>
</clipPath>
</defs>
</svg>
